<mxfile host="65bd71144e" modified="2021-02-03T02:32:07.140Z" agent="5.0 (Macintosh; Intel Mac OS X 10_14_6) AppleWebKit/537.36 (KHTML, like Gecko) Code/1.52.1 Chrome/83.0.4103.122 Electron/9.3.5 Safari/537.36" version="13.10.0" etag="1tX7WQXZClatUrPkwBbc" type="embed">
    <diagram id="AnqO3-dQOphb3ycuHRrm" name="Page-1">
        <mxGraphModel dx="260" dy="289" grid="1" gridSize="10" guides="1" tooltips="1" connect="1" arrows="1" fold="1" page="0" pageScale="1" pageWidth="827" pageHeight="1169" background="#F1FAEE" math="0" shadow="0">
            <root>
                <mxCell id="0"/>
                <mxCell id="1" parent="0"/>
                <mxCell id="3" value="&lt;font style=&quot;font-size: 14px&quot; color=&quot;#000000&quot;&gt;UI plane&amp;nbsp; &amp;nbsp;、 command&lt;/font&gt;" style="rounded=0;whiteSpace=wrap;html=1;sketch=0;strokeColor=#006658;fillColor=#21C0A5;fontColor=#5C5C5C;" vertex="1" parent="1">
                    <mxGeometry x="80" y="150" width="440" height="60" as="geometry"/>
                </mxCell>
                <mxCell id="4" value="" style="rounded=0;whiteSpace=wrap;html=1;sketch=0;strokeColor=#006658;fillColor=#21C0A5;fontColor=#5C5C5C;" vertex="1" parent="1">
                    <mxGeometry x="80" y="210" width="440" height="100" as="geometry"/>
                </mxCell>
                <mxCell id="5" value="&lt;font color=&quot;#000000&quot;&gt;容器应用层&lt;/font&gt;" style="rounded=0;whiteSpace=wrap;html=1;sketch=0;strokeColor=#006658;fillColor=#21C0A5;fontColor=#5C5C5C;" vertex="1" parent="1">
                    <mxGeometry x="80" y="310" width="440" height="70" as="geometry"/>
                </mxCell>
                <mxCell id="6" value="底层硬件" style="rounded=0;whiteSpace=wrap;html=1;sketch=0;strokeColor=#006658;fillColor=#21C0A5;fontColor=#5C5C5C;" vertex="1" parent="1">
                    <mxGeometry x="80" y="380" width="440" height="20" as="geometry"/>
                </mxCell>
                <mxCell id="8" value="&lt;font color=&quot;#000000&quot;&gt;app&lt;/font&gt;" style="ellipse;whiteSpace=wrap;html=1;aspect=fixed;rounded=0;sketch=0;strokeColor=#006658;fillColor=#21C0A5;fontColor=#5C5C5C;" vertex="1" parent="1">
                    <mxGeometry x="110" y="335" width="30" height="30" as="geometry"/>
                </mxCell>
                <mxCell id="9" value="&lt;span style=&quot;color: rgb(0 , 0 , 0)&quot;&gt;app&lt;/span&gt;" style="ellipse;whiteSpace=wrap;html=1;aspect=fixed;rounded=0;sketch=0;strokeColor=#006658;fillColor=#21C0A5;fontColor=#5C5C5C;" vertex="1" parent="1">
                    <mxGeometry x="160" y="335" width="30" height="30" as="geometry"/>
                </mxCell>
                <mxCell id="10" value="&lt;span style=&quot;color: rgb(0 , 0 , 0)&quot;&gt;app&lt;/span&gt;" style="ellipse;whiteSpace=wrap;html=1;aspect=fixed;rounded=0;sketch=0;strokeColor=#006658;fillColor=#21C0A5;fontColor=#5C5C5C;" vertex="1" parent="1">
                    <mxGeometry x="360" y="335" width="30" height="30" as="geometry"/>
                </mxCell>
                <mxCell id="11" value="&lt;span style=&quot;color: rgb(0 , 0 , 0)&quot;&gt;app&lt;/span&gt;" style="ellipse;whiteSpace=wrap;html=1;aspect=fixed;rounded=0;sketch=0;strokeColor=#006658;fillColor=#21C0A5;fontColor=#5C5C5C;" vertex="1" parent="1">
                    <mxGeometry x="210" y="335" width="30" height="30" as="geometry"/>
                </mxCell>
                <mxCell id="12" value="&lt;span style=&quot;color: rgb(0 , 0 , 0)&quot;&gt;app&lt;/span&gt;" style="ellipse;whiteSpace=wrap;html=1;aspect=fixed;rounded=0;sketch=0;strokeColor=#006658;fillColor=#21C0A5;fontColor=#5C5C5C;" vertex="1" parent="1">
                    <mxGeometry x="410" y="335" width="30" height="30" as="geometry"/>
                </mxCell>
                <mxCell id="13" value="&lt;span style=&quot;color: rgb(0 , 0 , 0)&quot;&gt;app&lt;/span&gt;" style="ellipse;whiteSpace=wrap;html=1;aspect=fixed;rounded=0;sketch=0;strokeColor=#006658;fillColor=#21C0A5;fontColor=#5C5C5C;" vertex="1" parent="1">
                    <mxGeometry x="460" y="335" width="30" height="30" as="geometry"/>
                </mxCell>
                <mxCell id="14" value="&lt;font style=&quot;font-size: 14px&quot; color=&quot;#000000&quot;&gt;kubernetes&lt;/font&gt;" style="rounded=1;whiteSpace=wrap;html=1;sketch=0;strokeColor=#006658;fillColor=#21C0A5;fontColor=#5C5C5C;" vertex="1" parent="1">
                    <mxGeometry x="145" y="270" width="310" height="60" as="geometry"/>
                </mxCell>
                <mxCell id="31" style="edgeStyle=orthogonalEdgeStyle;curved=0;rounded=1;sketch=0;orthogonalLoop=1;jettySize=auto;html=1;entryX=0.455;entryY=-0.008;entryDx=0;entryDy=0;entryPerimeter=0;strokeColor=#006658;fillColor=#21C0A5;fontColor=#5C5C5C;" edge="1" parent="1" source="17" target="3">
                    <mxGeometry relative="1" as="geometry"/>
                </mxCell>
                <mxCell id="17" value="" style="ellipse;shape=cloud;whiteSpace=wrap;html=1;rounded=0;sketch=0;strokeColor=#006658;fillColor=#21C0A5;fontColor=#5C5C5C;" vertex="1" parent="1">
                    <mxGeometry x="220" y="20" width="120" height="80" as="geometry"/>
                </mxCell>
                <mxCell id="23" value="配置" style="shape=image;html=1;verticalLabelPosition=bottom;verticalAlign=top;imageAspect=1;aspect=fixed;image=img/clipart/Gear_128x128.png;rounded=0;sketch=0;strokeColor=#006658;fillColor=#21C0A5;fontColor=#5C5C5C;" vertex="1" parent="1">
                    <mxGeometry x="99" y="220" width="25.58" height="30" as="geometry"/>
                </mxCell>
                <mxCell id="24" value="dns" style="shape=image;html=1;verticalLabelPosition=bottom;verticalAlign=top;imageAspect=1;aspect=fixed;image=img/clipart/Gear_128x128.png;rounded=0;sketch=0;strokeColor=#006658;fillColor=#21C0A5;fontColor=#5C5C5C;" vertex="1" parent="1">
                    <mxGeometry x="180" y="220" width="25.58" height="30" as="geometry"/>
                </mxCell>
                <mxCell id="25" value="服务发现" style="shape=image;html=1;verticalLabelPosition=bottom;verticalAlign=top;imageAspect=1;aspect=fixed;image=img/clipart/Gear_128x128.png;rounded=0;sketch=0;strokeColor=#006658;fillColor=#21C0A5;fontColor=#5C5C5C;" vertex="1" parent="1">
                    <mxGeometry x="250" y="220" width="25.58" height="30" as="geometry"/>
                </mxCell>
                <mxCell id="26" value="监控" style="shape=image;html=1;verticalLabelPosition=bottom;verticalAlign=top;imageAspect=1;aspect=fixed;image=img/clipart/Gear_128x128.png;rounded=0;sketch=0;strokeColor=#006658;fillColor=#21C0A5;fontColor=#5C5C5C;" vertex="1" parent="1">
                    <mxGeometry x="334.41999999999996" y="220" width="25.58" height="30" as="geometry"/>
                </mxCell>
                <mxCell id="27" value="网络" style="shape=image;html=1;verticalLabelPosition=bottom;verticalAlign=top;imageAspect=1;aspect=fixed;image=img/clipart/Gear_128x128.png;rounded=0;sketch=0;strokeColor=#006658;fillColor=#21C0A5;fontColor=#5C5C5C;" vertex="1" parent="1">
                    <mxGeometry x="450" y="220" width="25.58" height="30" as="geometry"/>
                </mxCell>
            </root>
        </mxGraphModel>
    </diagram>
</mxfile>